<svg width="359" height="359" viewBox="0 0 359 359" fill="none" xmlns="http://www.w3.org/2000/svg">
<path d="M351.526 93.4642C347.407 78.0754 335.313 65.9821 319.924 61.8627C292.061 54.389 180.278 54.389 180.278 54.389C180.278 54.389 68.4962 54.389 40.6317 61.8627C25.243 65.9821 13.1497 78.0754 9.03032 93.4642C1.55661 121.329 1.55661 179.5 1.55661 179.5C1.55661 179.5 1.55661 237.672 9.03032 265.536C13.1497 280.925 25.243 293.018 40.6317 297.137C68.4962 304.611 180.278 304.611 180.278 304.611C180.278 304.611 292.061 304.611 319.924 297.137C335.313 293.018 347.407 280.925 351.526 265.536C359 237.672 359 179.5 359 179.5C359 179.5 358.97 121.329 351.526 93.4642Z" fill="#FF0000"/>
<path d="M115.999 168.872H137.215V239.59H115.999V168.872ZM227.522 168.872H197.608L208.357 133.937C210.62 126.653 204.68 119.369 196.477 119.369C192.375 119.369 188.415 121.066 185.728 123.966L144.287 168.872V239.59H218.046C225.542 239.59 232.048 234.852 233.533 228.205L243.01 185.774C244.919 177.005 237.493 168.872 227.522 168.872Z" fill="white"/>
</svg>
